<mxfile host="app.diagrams.net" modified="2024-01-26T12:08:13.198Z" agent="Mozilla/5.0 (Macintosh; Intel Mac OS X 10.15; rv:120.0) Gecko/20100101 Firefox/120.0" etag="Rcwj-zQ6YpwRYRWNgTed" version="23.0.2" type="device">
  <diagram name="Page-1" id="kYMl0uwnVZyC48H-bb_2">
    <mxGraphModel dx="1242" dy="706" grid="1" gridSize="10" guides="1" tooltips="1" connect="1" arrows="1" fold="1" page="1" pageScale="1" pageWidth="850" pageHeight="1100" math="0" shadow="0">
      <root>
        <mxCell id="0" />
        <mxCell id="1" parent="0" />
        <mxCell id="NvOgRN_kKWF4vQwgTXRP-1" value="&lt;b style=&quot;font-size: 50px;&quot;&gt;&lt;font style=&quot;font-size: 50px;&quot;&gt;[Family] [Features] [Connectivity]&lt;/font&gt;&lt;/b&gt;" style="text;html=1;strokeColor=none;fillColor=none;align=center;verticalAlign=middle;whiteSpace=wrap;rounded=0;fontSize=50;" vertex="1" parent="1">
          <mxGeometry x="20" y="248" width="810" height="30" as="geometry" />
        </mxCell>
        <mxCell id="NvOgRN_kKWF4vQwgTXRP-2" value="" style="endArrow=classic;html=1;rounded=0;strokeWidth=2;" edge="1" parent="1">
          <mxGeometry width="50" height="50" relative="1" as="geometry">
            <mxPoint x="50" y="220" as="sourcePoint" />
            <mxPoint x="70" y="208" as="targetPoint" />
            <Array as="points">
              <mxPoint x="50" y="208" />
            </Array>
          </mxGeometry>
        </mxCell>
        <mxCell id="NvOgRN_kKWF4vQwgTXRP-5" value="&lt;b style=&quot;font-size: 16px;&quot;&gt;OAK-FFC&lt;/b&gt;: Modular cameras" style="text;html=1;strokeColor=none;fillColor=none;align=left;verticalAlign=middle;whiteSpace=wrap;rounded=0;fontSize=16;" vertex="1" parent="1">
          <mxGeometry x="72" y="193" width="258" height="30" as="geometry" />
        </mxCell>
        <mxCell id="NvOgRN_kKWF4vQwgTXRP-7" value="&lt;div align=&quot;left&quot; style=&quot;font-size: 16px;&quot;&gt;&lt;b style=&quot;font-size: 16px;&quot;&gt;OAK-D&lt;/b&gt;: with depth perception&lt;br style=&quot;font-size: 16px;&quot;&gt;&lt;/div&gt;" style="text;html=1;strokeColor=none;fillColor=none;align=left;verticalAlign=middle;whiteSpace=wrap;rounded=0;fontSize=16;" vertex="1" parent="1">
          <mxGeometry x="72" y="171" width="258" height="30" as="geometry" />
        </mxCell>
        <mxCell id="NvOgRN_kKWF4vQwgTXRP-10" value="" style="endArrow=classic;html=1;rounded=0;strokeWidth=2;" edge="1" parent="1">
          <mxGeometry width="50" height="50" relative="1" as="geometry">
            <mxPoint x="50" y="208" as="sourcePoint" />
            <mxPoint x="70" y="185" as="targetPoint" />
            <Array as="points">
              <mxPoint x="50" y="185" />
            </Array>
          </mxGeometry>
        </mxCell>
        <mxCell id="NvOgRN_kKWF4vQwgTXRP-13" value="&lt;div align=&quot;left&quot; style=&quot;font-size: 16px;&quot;&gt;&lt;b style=&quot;font-size: 16px;&quot;&gt;OAK-1&lt;/b&gt;: only color camera&lt;/div&gt;" style="text;html=1;strokeColor=none;fillColor=none;align=left;verticalAlign=middle;whiteSpace=wrap;rounded=0;fontSize=16;" vertex="1" parent="1">
          <mxGeometry x="72" y="150" width="298" height="30" as="geometry" />
        </mxCell>
        <mxCell id="NvOgRN_kKWF4vQwgTXRP-14" value="" style="endArrow=classic;html=1;rounded=0;strokeWidth=2;" edge="1" parent="1">
          <mxGeometry width="50" height="50" relative="1" as="geometry">
            <mxPoint x="50" y="184" as="sourcePoint" />
            <mxPoint x="70" y="164" as="targetPoint" />
            <Array as="points">
              <mxPoint x="50" y="164" />
            </Array>
          </mxGeometry>
        </mxCell>
        <mxCell id="NvOgRN_kKWF4vQwgTXRP-16" value="" style="endArrow=classic;html=1;rounded=0;strokeWidth=2;" edge="1" parent="1">
          <mxGeometry width="50" height="50" relative="1" as="geometry">
            <mxPoint x="50" y="172" as="sourcePoint" />
            <mxPoint x="70" y="142" as="targetPoint" />
            <Array as="points">
              <mxPoint x="50" y="142" />
            </Array>
          </mxGeometry>
        </mxCell>
        <mxCell id="NvOgRN_kKWF4vQwgTXRP-17" value="&lt;div align=&quot;left&quot; style=&quot;font-size: 16px;&quot;&gt;&lt;b style=&quot;font-size: 16px;&quot;&gt;OAK-T&lt;/b&gt;: with thermal camera&lt;br style=&quot;font-size: 16px;&quot;&gt;&lt;/div&gt;" style="text;html=1;strokeColor=none;fillColor=none;align=left;verticalAlign=middle;whiteSpace=wrap;rounded=0;fontSize=16;" vertex="1" parent="1">
          <mxGeometry x="72" y="128" width="278" height="30" as="geometry" />
        </mxCell>
        <mxCell id="NvOgRN_kKWF4vQwgTXRP-18" value="" style="endArrow=classic;html=1;rounded=0;fontSize=26;strokeWidth=2;" edge="1" parent="1">
          <mxGeometry width="50" height="50" relative="1" as="geometry">
            <mxPoint x="270" y="292" as="sourcePoint" />
            <mxPoint x="290" y="305" as="targetPoint" />
            <Array as="points">
              <mxPoint x="270" y="305" />
            </Array>
          </mxGeometry>
        </mxCell>
        <mxCell id="NvOgRN_kKWF4vQwgTXRP-19" value="&lt;b style=&quot;font-size: 16px;&quot;&gt;Lite&lt;/b&gt;: Lite camera modules" style="text;html=1;strokeColor=none;fillColor=none;align=left;verticalAlign=middle;whiteSpace=wrap;rounded=0;fontSize=16;" vertex="1" parent="1">
          <mxGeometry x="291" y="290" width="269" height="30" as="geometry" />
        </mxCell>
        <mxCell id="NvOgRN_kKWF4vQwgTXRP-22" value="" style="endArrow=classic;html=1;rounded=0;fontSize=26;strokeWidth=2;" edge="1" parent="1">
          <mxGeometry width="50" height="50" relative="1" as="geometry">
            <mxPoint x="270" y="300" as="sourcePoint" />
            <mxPoint x="290" y="327" as="targetPoint" />
            <Array as="points">
              <mxPoint x="270" y="327" />
            </Array>
          </mxGeometry>
        </mxCell>
        <mxCell id="NvOgRN_kKWF4vQwgTXRP-23" value="&lt;b style=&quot;font-size: 16px;&quot;&gt;Pro&lt;/b&gt;: Active stereo + Night vision" style="text;html=1;strokeColor=none;fillColor=none;align=left;verticalAlign=middle;whiteSpace=wrap;rounded=0;fontSize=16;" vertex="1" parent="1">
          <mxGeometry x="291" y="313" width="319" height="30" as="geometry" />
        </mxCell>
        <mxCell id="NvOgRN_kKWF4vQwgTXRP-25" value="" style="endArrow=classic;html=1;rounded=0;fontSize=26;strokeWidth=2;" edge="1" parent="1">
          <mxGeometry width="50" height="50" relative="1" as="geometry">
            <mxPoint x="270" y="320" as="sourcePoint" />
            <mxPoint x="290" y="350" as="targetPoint" />
            <Array as="points">
              <mxPoint x="270" y="350" />
            </Array>
          </mxGeometry>
        </mxCell>
        <mxCell id="NvOgRN_kKWF4vQwgTXRP-26" value="&lt;b style=&quot;font-size: 16px;&quot;&gt;3P/4P: &lt;/b&gt;Number of camera ports on OAK FFC" style="text;html=1;strokeColor=none;fillColor=none;align=left;verticalAlign=middle;whiteSpace=wrap;rounded=0;fontSize=16;" vertex="1" parent="1">
          <mxGeometry x="291" y="337" width="379" height="30" as="geometry" />
        </mxCell>
        <mxCell id="NvOgRN_kKWF4vQwgTXRP-27" value="" style="endArrow=classic;html=1;rounded=0;fontSize=26;strokeWidth=2;" edge="1" parent="1">
          <mxGeometry width="50" height="50" relative="1" as="geometry">
            <mxPoint x="270" y="340" as="sourcePoint" />
            <mxPoint x="290" y="375" as="targetPoint" />
            <Array as="points">
              <mxPoint x="270" y="375" />
            </Array>
          </mxGeometry>
        </mxCell>
        <mxCell id="NvOgRN_kKWF4vQwgTXRP-28" value="&lt;b style=&quot;font-size: 16px;&quot;&gt;CM3/CM4&lt;/b&gt;: On-board RPi compute module" style="text;html=1;strokeColor=none;fillColor=none;align=left;verticalAlign=middle;whiteSpace=wrap;rounded=0;fontSize=16;" vertex="1" parent="1">
          <mxGeometry x="291" y="362" width="319" height="30" as="geometry" />
        </mxCell>
        <mxCell id="NvOgRN_kKWF4vQwgTXRP-35" value="" style="endArrow=classic;html=1;rounded=0;strokeWidth=2;" edge="1" parent="1">
          <mxGeometry width="50" height="50" relative="1" as="geometry">
            <mxPoint x="512" y="225" as="sourcePoint" />
            <mxPoint x="532" y="213" as="targetPoint" />
            <Array as="points">
              <mxPoint x="512" y="213" />
            </Array>
          </mxGeometry>
        </mxCell>
        <mxCell id="NvOgRN_kKWF4vQwgTXRP-36" value="&lt;b&gt;PoE:&lt;/b&gt; Power-over-Ethernet " style="text;html=1;strokeColor=none;fillColor=none;align=left;verticalAlign=middle;whiteSpace=wrap;rounded=0;fontSize=16;" vertex="1" parent="1">
          <mxGeometry x="534" y="198" width="258" height="30" as="geometry" />
        </mxCell>
        <mxCell id="NvOgRN_kKWF4vQwgTXRP-37" value="&lt;b&gt;[Default]&lt;/b&gt;: USB2/USB3" style="text;html=1;strokeColor=none;fillColor=none;align=left;verticalAlign=middle;whiteSpace=wrap;rounded=0;fontSize=16;" vertex="1" parent="1">
          <mxGeometry x="534" y="176" width="258" height="30" as="geometry" />
        </mxCell>
        <mxCell id="NvOgRN_kKWF4vQwgTXRP-38" value="" style="endArrow=classic;html=1;rounded=0;strokeWidth=2;" edge="1" parent="1">
          <mxGeometry width="50" height="50" relative="1" as="geometry">
            <mxPoint x="512" y="213" as="sourcePoint" />
            <mxPoint x="532" y="190" as="targetPoint" />
            <Array as="points">
              <mxPoint x="512" y="190" />
            </Array>
          </mxGeometry>
        </mxCell>
      </root>
    </mxGraphModel>
  </diagram>
</mxfile>
